<svg width="1027" height="953" viewBox="0 0 1027 953" fill="none" xmlns="http://www.w3.org/2000/svg">
<path d="M485.2 569.75V636.43C485.2 636.43 506.82 641.28 519.37 653.84L550.57 866.07L757.02 711.11L634.33 566.23L529.79 551.79L635.38 560.2L760.93 708.93L815.8 682.32C815.8 682.32 735.98 584.41 735.98 560.2C735.98 535.99 776.72 509.02 776.72 404.44L776.17 360.42L649.5 392.75L623.61 365.42C623.61 365.42 619.73 400.06 571.65 428.95C571.65 428.95 544.38 449.09 498.76 437.64L485.2 486.37L533.86 517.21L492.84 568.56L485.2 569.75Z" fill="#4D4DFF"/>
<path d="M332.95 792.77L393.54 794.6C435.86 795.88 473.9 820.01 485.2 885.17L512.56 877.37L539.18 866.07L519.52 719.16C519.35 719.08 511.1 661.82 511.1 661.82C508.65 676.21 500.78 689.11 489.1 697.87L450.13 728.28C447.06 730.58 417.1 750.06 413.74 751.93L396.83 761.49C392.27 764.07 387.62 766.5 382.89 768.77L332.96 792.77H332.95Z" fill="#4D4DFF"/>
<path d="M477.14 647.5C477.14 647.5 508.89 654.06 490.31 677.02C469.64 702.56 402.59 746.86 325.12 786.11" stroke="#4D4DFF" stroke-width="6" stroke-miterlimit="10"/>
<path d="M469.85 870.81C440.66 920.14 342.48 937.93 319.76 941.44C317.11 941.85 314.64 940.18 313.96 937.59C309.12 919.29 286.5 851.78 215.96 851.78H184.88C184.88 851.78 150.88 889.64 100.37 889.64C74.9299 889.64 57.0298 871.07 45.5398 852.64C34.9898 835.71 29.0998 816.3 27.5198 796.41C27.5198 791.58 31.43 787.67 36.26 787.67C36.26 787.67 54.7199 696.36 21.6899 596.31L11 536.08L66.3699 478.77C66.3699 478.77 43.0598 448.34 43.0598 388.27C43.0598 328.2 36.0399 236.9 143.38 129.56C250.72 22.2201 329.22 8 463.96 8C598.7 8 684.66 70.78 922.16 168.89L823.08 229.32" stroke="#4D4DFF" stroke-width="6" stroke-miterlimit="10"/>
<path d="M42.8499 603.29C42.8499 603.29 28.8398 583.94 28.8398 557.91L67.5498 589.28L128.95 517.2" stroke="#4D4DFF" stroke-width="6" stroke-miterlimit="10"/>
<path d="M11 536.08H40.8599L78.8999 575.96" stroke="#4D4DFF" stroke-width="6" stroke-miterlimit="10"/>
<path d="M51.74 527.72L97.1299 480.46" stroke="#4D4DFF" stroke-width="6" stroke-miterlimit="10"/>
<path d="M399.25 297.05V420.61L210.96 536.07H190.98L97.1199 480.45L66.3599 478.76" stroke="#4D4DFF" stroke-width="6" stroke-miterlimit="10"/>
<path d="M902.91 160.93H947.66C1024.42 160.93 1021.04 208.17 1021.04 208.17L882.92 326.92L845.59 320.35L626.12 326.92" stroke="#4D4DFF" stroke-width="6" stroke-miterlimit="10"/>
<path d="M853.45 321.73V340.7L649.5 392.76L623.61 362.97" stroke="#4D4DFF" stroke-width="6" stroke-miterlimit="10"/>
<path d="M498.76 437.64L485.2 486.37" stroke="#4D4DFF" stroke-width="6" stroke-miterlimit="10"/>
<path d="M212.83 565.57C257.22 545.74 293.33 538.07 313.55 535.11C330.17 532.68 346.15 527.23 360.69 518.82C409.69 490.47 466.58 440.73 466.58 440.73C466.58 440.73 469.82 492.24 440.22 520.49C410.62 548.75 353.44 573.64 353.44 573.64L232.82 579.69L185.25 613.33" stroke="#4D4DFF" stroke-width="6" stroke-miterlimit="10"/>
<path d="M174.18 752.88V649.01C174.18 649.01 158.55 635.22 158.55 616.84C158.55 598.46 174.18 584.67 174.18 584.67" stroke="#4D4DFF" stroke-width="6" stroke-miterlimit="10"/>
<path d="M463.95 472.9L533.87 517.2L492.85 568.55L413.26 580.98L381.1 647.5" stroke="#4D4DFF" stroke-width="6" stroke-miterlimit="10"/>
<path d="M443.46 402.06C443.46 402.06 467 392.2 478.28 369.72M452.11 412.89C452.11 412.89 475.65 403.03 486.93 380.55M463.95 420.63C463.95 420.63 487.49 410.77 498.77 388.29M617.39 381.49C617.39 381.49 600.92 361.99 576.09 357.98M823.07 229.35C823.07 229.35 507.17 99.63 399.26 207.53C291.35 315.44 371.5 437.66 371.5 437.66M523.82 279.62C555.06 279.62 580.39 304.95 580.39 336.19C580.39 367.43 555.06 392.76 523.82 392.76C492.58 392.76 467.25 367.43 467.25 336.19C467.25 304.95 492.58 279.62 523.82 279.62ZM420.94 337.85C420.94 394.67 467 440.73 523.82 440.73C580.64 440.73 626.7 394.67 626.7 337.85C626.7 281.03 580.64 234.97 523.82 234.97C467 234.97 420.94 281.03 420.94 337.85Z" stroke="#4D4DFF" stroke-width="6" stroke-miterlimit="10"/>
<path d="M342.86 434.88C342.86 434.88 261.44 310.31 381.08 190.67C491.08 80.67 823.06 212.32 823.06 212.32L881.24 176.66C881.24 176.66 617.38 27.89 443.45 27.89C405.94 27.89 339.62 29.19 294.59 48.61C216.03 82.49 155.56 137.82 105.29 207.05C80.0697 241.78 64.6097 295.34 60.2797 333.24C58.3697 350.01 57.7498 366.89 58.1398 383.76C58.4198 395.96 59.8197 408.1 62.0297 420.1L71.6999 460.67C71.8099 461.14 72.2399 461.48 72.7299 461.47L97.1098 460.93L191.85 518.13H210.18L342.85 434.89L342.86 434.88Z" fill="#4D4DFF"/>
<path d="M756.29 377.47C757.54 394.19 757.13 411.02 755.06 427.66C752.99 444.38 749.21 460.91 743.87 476.89C740.87 485.86 737.36 494.66 733.36 503.24C732.55 504.98 735.13 506.5 735.95 504.75C743.15 489.3 748.82 473.15 752.82 456.57C756.8 440.07 759.15 423.17 759.81 406.22C760.18 396.64 760.01 387.04 759.29 377.47C759.15 375.56 756.15 375.54 756.29 377.47Z" fill="#4D4DFF"/>
<path d="M184.87 851.78L295.38 805.03C295.38 805.03 395.51 806.16 414.13 811.29C434.92 817.02 463.94 828.32 473.9 889.64" stroke="#4D4DFF" stroke-width="6" stroke-miterlimit="10"/>
<path d="M464.16 853.1C464.16 853.1 448.94 899.38 308.31 920.74M300.27 905.98C440.9 884.61 456.12 838.34 456.12 838.34M292.66 891.92C433.29 870.55 445.07 828.56 445.07 828.56M281.27 879.02C421.9 857.65 432.53 818.2 432.53 818.2M267.49 866.99C408.12 845.62 410.62 809.44 410.62 809.44M253.05 859.07C362.04 840.79 392.81 808.52 392.81 808.52M232.02 852.46C341.01 834.18 356.9 807.8 356.9 807.8M209.31 851.18C326.34 822.57 332.95 805.78 332.95 805.78M188.05 850.42C308.31 818.19 308.5 805.02 308.5 805.02" stroke="#4D4DFF" stroke-width="6" stroke-miterlimit="10"/>
<path d="M280.22 577.31C280.22 577.31 245.49 686.14 226.28 718.84C226.28 718.84 225.06 736.01 245.49 736.01L346.05 656.66L381.09 581.49L380.88 560.24L353.44 573.63L280.23 577.3L280.22 577.31Z" fill="#4D4DFF"/>
</svg>
