<svg width="1010" height="1155" viewBox="0 0 1010 1155" fill="none" xmlns="http://www.w3.org/2000/svg">
<g clip-path="url(#clip0_1_2)">
<path d="M104.03 1154.63V1121.78H55.1599V1154.63H24.4299V1066.02H55.1599V1096.22H104.03V1066.02H134.63V1154.63H104.03Z" fill="#4D4DFF"/>
<path d="M214.91 1156.09C170.94 1156.09 148.82 1141.92 148.82 1110.27C148.82 1078.62 170.94 1064.57 214.91 1064.57C258.88 1064.57 281.13 1078.61 281.13 1110.27C281.13 1141.93 258.88 1156.09 214.91 1156.09ZM214.91 1090.4C188.42 1090.4 179.42 1092.65 179.42 1110.27C179.42 1127.89 188.43 1130.27 214.91 1130.27C241.39 1130.27 250.54 1127.75 250.54 1110.27C250.54 1092.79 241.53 1090.4 214.91 1090.4Z" fill="#4D4DFF"/>
<path d="M382.22 1154.63L365.4 1132.64H325.4V1154.63H294.81V1108.27H374.94C382.23 1108.27 386.2 1105.75 386.2 1099.93C386.2 1094.11 382.23 1091.85 374.94 1091.85H294.95L314.95 1066.02H371.11C391.11 1066.02 417.99 1071.98 417.99 1098.2C417.99 1111.44 410.17 1123.1 396.4 1126.41C398.78 1128 404.74 1133.3 416.8 1147.34L423.16 1154.62H382.23L382.22 1154.63Z" fill="#4D4DFF"/>
<path d="M433.64 1154.63V1066.02H464.24V1154.63H433.64Z" fill="#4D4DFF"/>
<path d="M492.45 1154.63C484.77 1154.63 478.15 1150.13 478.15 1142.18C478.15 1137.68 480.66 1133.31 484.9 1130.13L515.5 1106.42C530.86 1094.5 534.57 1092.12 536.29 1091.19C533.11 1091.59 527.28 1091.85 506.49 1091.85H474.57L494.04 1066.02H573.51C581.19 1066.02 587.81 1070.52 587.81 1078.47C587.81 1082.84 585.16 1087.34 581.05 1090.52L550.99 1114.09C535.1 1126.54 530.86 1129.06 529.53 1129.85C531.12 1129.45 540.52 1129.19 560.79 1129.19H592.44L573.9 1154.62H492.45V1154.63Z" fill="#4D4DFF"/>
<path d="M665.18 1156.09C621.21 1156.09 599.09 1141.92 599.09 1110.27C599.09 1078.62 621.21 1064.57 665.18 1064.57C709.15 1064.57 731.4 1078.61 731.4 1110.27C731.4 1141.93 709.15 1156.09 665.18 1156.09ZM665.18 1090.4C638.69 1090.4 629.69 1092.65 629.69 1110.27C629.69 1127.89 638.7 1130.27 665.18 1130.27C691.66 1130.27 700.81 1127.75 700.81 1110.27C700.81 1092.79 691.8 1090.4 665.18 1090.4Z" fill="#4D4DFF"/>
<path d="M772.89 1107.08V1154.63H745.08V1083.11C745.08 1069.87 752.89 1064.44 761.77 1064.44C765.48 1064.44 769.05 1065.37 773.95 1069.61L824.15 1113.71V1066.03H851.96V1137.68C851.96 1150.92 844.02 1156.35 835.14 1156.35C831.3 1156.35 827.86 1155.29 822.96 1151.05L772.89 1107.08Z" fill="#4D4DFF"/>
<path d="M863.11 1154.63L882.84 1129.2H949.73C953.7 1129.2 955.95 1127.74 955.95 1124.57C955.95 1121.4 953.7 1119.93 949.46 1119.93H899.4C876.49 1119.93 866.02 1109.2 866.02 1094.24C866.02 1076.36 877.15 1066.03 904.83 1066.03H982.97L963.24 1091.86H901.92C897.81 1091.86 895.69 1092.92 895.69 1096.1C895.69 1099.28 897.81 1100.47 901.92 1100.47H952.25C973.71 1100.47 985.49 1108.81 985.49 1124.97C985.49 1143.25 976.75 1154.64 949.33 1154.64H863.11V1154.63Z" fill="#4D4DFF"/>
<path d="M474.2 561.75V628.43C474.2 628.43 495.82 633.28 508.37 645.84L539.57 858.07L746.02 703.11L623.33 558.23L518.79 543.79L624.38 552.2L749.93 700.93L804.8 674.32C804.8 674.32 724.98 576.41 724.98 552.2C724.98 527.99 765.72 501.02 765.72 396.44L765.17 352.42L638.5 384.75L612.61 357.42C612.61 357.42 608.73 392.06 560.65 420.95C560.65 420.95 533.38 441.09 487.76 429.64L474.2 478.37L522.86 509.21L481.84 560.56L474.2 561.75Z" fill="#4D4DFF"/>
<path d="M321.95 784.77L382.54 786.6C424.86 787.88 462.9 812.01 474.2 877.17L501.56 869.37L528.18 858.07L508.52 711.16C508.35 711.08 500.1 653.82 500.1 653.82C497.65 668.21 489.78 681.11 478.1 689.87L439.13 720.28C436.06 722.58 406.1 742.06 402.74 743.93L385.83 753.49C381.27 756.07 376.62 758.5 371.89 760.77L321.96 784.77H321.95Z" fill="#4D4DFF"/>
<path d="M466.14 639.5C466.14 639.5 497.89 646.06 479.31 669.02C458.64 694.56 391.59 738.86 314.12 778.11" stroke="#4D4DFF" stroke-width="6" stroke-miterlimit="10"/>
<path d="M458.85 862.81C429.66 912.14 331.48 929.93 308.76 933.44C306.11 933.85 303.64 932.18 302.96 929.59C298.12 911.29 275.5 843.78 204.96 843.78H173.88C173.88 843.78 139.88 881.64 89.3699 881.64C63.9299 881.64 46.0298 863.07 34.5398 844.64C23.9898 827.71 18.0998 808.3 16.5198 788.41C16.5198 783.58 20.43 779.67 25.26 779.67C25.26 779.67 43.7199 688.36 10.6899 588.31L0 528.08L55.3699 470.77C55.3699 470.77 32.0598 440.34 32.0598 380.27C32.0598 320.2 25.0399 228.9 132.38 121.56C239.72 14.2201 318.22 0 452.96 0C587.7 0 673.66 62.78 911.16 160.89L812.08 221.32" stroke="#4D4DFF" stroke-width="6" stroke-miterlimit="10"/>
<path d="M31.8499 595.29C31.8499 595.29 17.8398 575.94 17.8398 549.91L56.5498 581.28L117.95 509.2" stroke="#4D4DFF" stroke-width="6" stroke-miterlimit="10"/>
<path d="M0 528.08H29.8599L67.8999 567.96" stroke="#4D4DFF" stroke-width="6" stroke-miterlimit="10"/>
<path d="M40.74 519.72L86.1299 472.46" stroke="#4D4DFF" stroke-width="6" stroke-miterlimit="10"/>
<path d="M388.25 289.05V412.61L199.96 528.07H179.98L86.1199 472.45L55.3599 470.76" stroke="#4D4DFF" stroke-width="6" stroke-miterlimit="10"/>
<path d="M891.91 152.93H936.66C1013.42 152.93 1010.04 200.17 1010.04 200.17L871.92 318.92L834.59 312.35L615.12 318.92" stroke="#4D4DFF" stroke-width="6" stroke-miterlimit="10"/>
<path d="M842.45 313.73V332.7L638.5 384.76L612.61 354.97" stroke="#4D4DFF" stroke-width="6" stroke-miterlimit="10"/>
<path d="M487.76 429.64L474.2 478.37" stroke="#4D4DFF" stroke-width="6" stroke-miterlimit="10"/>
<path d="M201.83 557.57C246.22 537.74 282.33 530.07 302.55 527.11C319.17 524.68 335.15 519.23 349.69 510.82C398.69 482.47 455.58 432.73 455.58 432.73C455.58 432.73 458.82 484.24 429.22 512.49C399.62 540.75 342.44 565.64 342.44 565.64L221.82 571.69L174.25 605.33" stroke="#4D4DFF" stroke-width="6" stroke-miterlimit="10"/>
<path d="M163.18 744.88V641.01C163.18 641.01 147.55 627.22 147.55 608.84C147.55 590.46 163.18 576.67 163.18 576.67" stroke="#4D4DFF" stroke-width="6" stroke-miterlimit="10"/>
<path d="M452.95 464.9L522.87 509.2L481.85 560.55L402.26 572.98L370.1 639.5" stroke="#4D4DFF" stroke-width="6" stroke-miterlimit="10"/>
<path d="M432.46 394.06C432.46 394.06 456 384.2 467.28 361.72M441.11 404.89C441.11 404.89 464.65 395.03 475.93 372.55M452.95 412.63C452.95 412.63 476.49 402.77 487.77 380.29M606.39 373.49C606.39 373.49 589.92 353.99 565.09 349.98M812.07 221.35C812.07 221.35 496.17 91.63 388.26 199.53C280.35 307.44 360.5 429.66 360.5 429.66M512.82 271.62C544.06 271.62 569.39 296.95 569.39 328.19C569.39 359.43 544.06 384.76 512.82 384.76C481.58 384.76 456.25 359.43 456.25 328.19C456.25 296.95 481.58 271.62 512.82 271.62ZM409.94 329.85C409.94 386.67 456 432.73 512.82 432.73C569.64 432.73 615.7 386.67 615.7 329.85C615.7 273.03 569.64 226.97 512.82 226.97C456 226.97 409.94 273.03 409.94 329.85Z" stroke="#4D4DFF" stroke-width="6" stroke-miterlimit="10"/>
<path d="M331.86 426.88C331.86 426.88 250.44 302.31 370.08 182.67C480.08 72.67 812.06 204.32 812.06 204.32L870.24 168.66C870.24 168.66 606.38 19.89 432.45 19.89C394.94 19.89 328.62 21.19 283.59 40.61C205.03 74.49 144.56 129.82 94.2897 199.05C69.0697 233.78 53.6097 287.34 49.2797 325.24C47.3697 342.01 46.7498 358.89 47.1398 375.76C47.4198 387.96 48.8197 400.1 51.0297 412.1L60.6999 452.67C60.8099 453.14 61.2399 453.48 61.7299 453.47L86.1098 452.93L180.85 510.13H199.18L331.85 426.89L331.86 426.88Z" fill="#4D4DFF"/>
<path d="M745.29 369.47C746.54 386.19 746.13 403.02 744.06 419.66C741.99 436.38 738.21 452.91 732.87 468.89C729.87 477.86 726.36 486.66 722.36 495.24C721.55 496.98 724.13 498.5 724.95 496.75C732.15 481.3 737.82 465.15 741.82 448.57C745.8 432.07 748.15 415.17 748.81 398.22C749.18 388.64 749.01 379.04 748.29 369.47C748.15 367.56 745.15 367.54 745.29 369.47Z" fill="#000000"/>
<path d="M173.87 843.78L284.38 797.03C284.38 797.03 384.51 798.16 403.13 803.29C423.92 809.02 452.94 820.32 462.9 881.64" stroke="#4D4DFF" stroke-width="6" stroke-miterlimit="10"/>
<path d="M453.16 845.1C453.16 845.1 437.94 891.38 297.31 912.74M289.27 897.98C429.9 876.61 445.12 830.34 445.12 830.34M281.66 883.92C422.29 862.55 434.07 820.56 434.07 820.56M270.27 871.02C410.9 849.65 421.53 810.2 421.53 810.2M256.49 858.99C397.12 837.62 399.62 801.44 399.62 801.44M242.05 851.07C351.04 832.79 381.81 800.52 381.81 800.52M221.02 844.46C330.01 826.18 345.9 799.8 345.9 799.8M198.31 843.18C315.34 814.57 321.95 797.78 321.95 797.78M177.05 842.42C297.31 810.19 297.5 797.02 297.5 797.02" stroke="#4D4DFF" stroke-width="6" stroke-miterlimit="10"/>
<path d="M269.22 569.31C269.22 569.31 234.49 678.14 215.28 710.84C215.28 710.84 214.06 728.01 234.49 728.01L335.05 648.66L370.09 573.49L369.88 552.24L342.44 565.63L269.23 569.3L269.22 569.31Z" fill="#4D4DFF"/>
</g>
<defs>
<clipPath id="clip0_1_2">
<rect width="1010" height="1155" fill="white"/>
</clipPath>
</defs>
</svg>
